<svg width="70" height="70" viewBox="0 0 70 70" fill="none" xmlns="http://www.w3.org/2000/svg">
<g clip-path="url(#clip0_106_5197)">
<path d="M18.4231 56.6183H3.27391C2.46016 56.6183 2.18745 56.6183 2.18745 55.144V51.6367C2.18745 51.3466 2.07222 51.0684 1.8671 50.8633C1.66198 50.6582 1.38378 50.5429 1.0937 50.5429C0.803623 50.5429 0.525424 50.6582 0.320306 50.8633C0.115188 51.0684 -4.59384e-05 51.3466 -4.59384e-05 51.6367V55.144C-0.0824854 55.6098 -0.0580639 56.0882 0.0713759 56.5432C0.200816 56.9981 0.431893 57.4178 0.747175 57.7704C1.06246 58.123 1.45371 58.3995 1.89141 58.5788C2.32911 58.7582 2.80183 58.8358 3.27391 58.8058H18.4231C18.7132 58.8058 18.9914 58.6906 19.1965 58.4855C19.4016 58.2804 19.5168 58.0022 19.5168 57.7121C19.5168 57.422 19.4016 57.1438 19.1965 56.9387C18.9914 56.7336 18.7132 56.6183 18.4231 56.6183V56.6183ZM1.0937 48.1936C1.38378 48.1936 1.66198 48.0783 1.8671 47.8732C2.07222 47.6681 2.18745 47.3899 2.18745 47.0998V10.9448L35.2916 11.0017V29.2381C35.2916 29.5282 35.4069 29.8064 35.612 30.0115C35.8171 30.2166 36.0953 30.3319 36.3854 30.3319C36.6755 30.3319 36.9536 30.2166 37.1588 30.0115C37.3639 29.8064 37.4791 29.5282 37.4791 29.2381V11.0017C37.4846 10.4102 37.2549 9.84068 36.8406 9.41845C36.4263 8.99622 35.8613 8.75578 35.2697 8.75001H3.11495L8.11704 4.52084H39.9087C40.3728 4.52084 40.818 4.70522 41.1461 5.03341C41.4743 5.3616 41.6587 5.80671 41.6587 6.27084V28.4667C41.6587 28.7568 41.7739 29.035 41.9791 29.2401C42.1842 29.4452 42.4624 29.5604 42.7525 29.5604C43.0425 29.5604 43.3207 29.4452 43.5259 29.2401C43.731 29.035 43.8462 28.7568 43.8462 28.4667V6.27084C43.8462 5.22655 43.4314 4.22504 42.6929 3.48661C41.9545 2.74819 40.953 2.33334 39.9087 2.33334H7.71745C7.45905 2.33319 7.20896 2.42465 7.01162 2.59147L0.514746 8.09522C0.361155 8.25274 0.241097 8.43978 0.161829 8.64501C0.0602929 8.8081 0.00438985 8.99545 -4.59384e-05 9.18751V47.1042C0.00111136 47.3935 0.116856 47.6706 0.321849 47.8747C0.526841 48.0789 0.80438 48.1936 1.0937 48.1936Z" fill="#76FF03"/>
<path d="M39.5821 28.8473C39.8722 28.8473 40.1504 28.7321 40.3555 28.5269C40.5606 28.3218 40.6758 28.0436 40.6758 27.7535V8.80834C40.6747 7.94681 40.3323 7.12081 39.7237 6.51107C39.115 5.90133 38.2897 5.5575 37.4281 5.5548L10.0902 5.49792C9.80013 5.49792 9.52193 5.61316 9.31681 5.81828C9.11169 6.02339 8.99646 6.30159 8.99646 6.59167C8.99646 6.88176 9.11169 7.15996 9.31681 7.36507C9.52193 7.57019 9.80013 7.68542 10.0902 7.68542L37.4296 7.7423C37.7119 7.74307 37.9825 7.85568 38.182 8.05548C38.3815 8.25527 38.4938 8.52598 38.4942 8.80834V27.7535C38.4942 28.0426 38.6086 28.3199 38.8125 28.5249C39.0163 28.7298 39.293 28.8458 39.5821 28.8473ZM54.6467 49.6694C54.3566 49.6694 54.0784 49.7846 53.8733 49.9897C53.6682 50.1949 53.5529 50.4731 53.5529 50.7631V59.8573C53.555 60.0708 53.5049 60.2815 53.4071 60.4713C52.7917 61.6452 49.875 65.4792 38.2083 65.4792C26.5417 65.4792 23.625 61.6496 23.0023 60.4742C22.9047 60.2849 22.8547 60.0747 22.8565 59.8617V51.2269C22.8565 50.9368 22.7412 50.6586 22.5361 50.4535C22.331 50.2484 22.0528 50.1331 21.7627 50.1331C21.4726 50.1331 21.1944 50.2484 20.9893 50.4535C20.7842 50.6586 20.669 50.9368 20.669 51.2269V59.8573C20.6659 60.4248 20.8 60.9846 21.0598 61.4892C22.0427 63.3456 25.6667 67.6667 38.2083 67.6667C50.75 67.6667 54.3725 63.35 55.3481 61.495C55.61 60.9906 55.7452 60.43 55.7419 59.8617V50.7631C55.7419 50.6194 55.7135 50.477 55.6585 50.3442C55.6034 50.2114 55.5227 50.0908 55.421 49.9892C55.3193 49.8876 55.1985 49.8071 55.0657 49.7522C54.9328 49.6973 54.7904 49.6692 54.6467 49.6694Z" fill="#76FF03"/>
<path d="M69.2518 40.3069L40.3156 30.641C40.0946 30.5667 39.8555 30.5667 39.6345 30.641L7.03932 41.0914C6.82167 41.1631 6.63198 41.3012 6.49693 41.4863C6.36189 41.6714 6.2883 41.8942 6.28653 42.1233C6.28476 42.3524 6.3549 42.5763 6.48706 42.7635C6.61923 42.9507 6.80677 43.0917 7.02328 43.1667L37.5024 53.4683C37.6152 53.5064 37.7334 53.5261 37.8524 53.5267C37.9777 53.5264 38.102 53.5047 38.2199 53.4625L60.5922 45.4737V50.7237C59.8381 50.9514 59.177 51.4153 58.7063 52.0469C58.2355 52.6786 57.9801 53.4447 57.9775 54.2325V56.4375C57.9775 57.4153 58.3659 58.353 59.0572 59.0444C59.7486 59.7357 60.6864 60.1242 61.6641 60.1242C62.6419 60.1242 63.5796 59.7357 64.271 59.0444C64.9624 58.353 65.3508 57.4153 65.3508 56.4375V54.2296C65.3488 53.4489 65.0986 52.6891 64.6364 52.06C64.1743 51.4309 63.5241 50.9649 62.7797 50.7296V44.6921L69.2708 42.3748C69.4852 42.2983 69.6704 42.1568 69.8006 41.9701C69.9308 41.7834 69.9995 41.5607 69.997 41.333C69.9946 41.1054 69.9213 40.8842 69.7872 40.7002C69.6531 40.5163 69.4649 40.3788 69.2489 40.3069H69.2518ZM63.1574 56.4375C63.1574 56.8351 62.9995 57.2164 62.7184 57.4976C62.4372 57.7787 62.0559 57.9367 61.6583 57.9367C61.2607 57.9367 60.8794 57.7787 60.5982 57.4976C60.3171 57.2164 60.1591 56.8351 60.1591 56.4375V54.2296C60.1591 54.0327 60.1979 53.8378 60.2732 53.6559C60.3486 53.474 60.459 53.3087 60.5982 53.1695C60.7374 53.0303 60.9027 52.9199 61.0846 52.8445C61.2665 52.7692 61.4614 52.7304 61.6583 52.7304C61.8552 52.7304 62.0501 52.7692 62.232 52.8445C62.4139 52.9199 62.5791 53.0303 62.7184 53.1695C62.8576 53.3087 62.968 53.474 63.0433 53.6559C63.1187 53.8378 63.1574 54.0327 63.1574 54.2296V56.4375ZM61.53 42.8167L38.3235 40.3127C38.1789 40.2936 38.0319 40.3037 37.8912 40.3423C37.7506 40.3808 37.619 40.4471 37.5044 40.5373C37.3897 40.6275 37.2943 40.7397 37.2236 40.8673C37.153 40.9949 37.1085 41.1353 37.093 41.2804C37.0774 41.4254 37.091 41.5721 37.133 41.7118C37.175 41.8515 37.2444 41.9813 37.3374 42.0938C37.4303 42.2062 37.5447 42.2989 37.674 42.3665C37.8033 42.434 37.9448 42.475 38.0902 42.4871L56.7991 44.5054L37.8408 51.2779L10.8704 42.1604L39.9612 32.8271L65.5564 41.3773L61.53 42.8167Z" fill="#76FF03"/>
</g>
<defs>
<clipPath id="clip0_106_5197">
<rect width="70" height="70" fill="white"/>
</clipPath>
</defs>
</svg>
