<svg width="49" height="48" viewBox="0 0 49 48" fill="none" xmlns="http://www.w3.org/2000/svg">
<g clip-path="url(#clip0_124_32)">
<path d="M13.133 38.824H2.745C2.187 38.824 2.00001 38.824 2.00001 37.813V35.408C2.00001 35.2091 1.92099 35.0183 1.78034 34.8777C1.63968 34.737 1.44892 34.658 1.25001 34.658C1.05109 34.658 0.860327 34.737 0.719675 34.8777C0.579023 35.0183 0.500005 35.2091 0.500005 35.408V37.813C0.443475 38.1324 0.460221 38.4605 0.54898 38.7725C0.637739 39.0844 0.796192 39.3722 1.01239 39.614C1.22858 39.8558 1.49686 40.0454 1.797 40.1684C2.09714 40.2913 2.42129 40.3446 2.745 40.324H13.133C13.3319 40.324 13.5227 40.245 13.6633 40.1043C13.804 39.9637 13.883 39.7729 13.883 39.574C13.883 39.3751 13.804 39.1843 13.6633 39.0437C13.5227 38.903 13.3319 38.824 13.133 38.824ZM1.25001 33.047C1.44892 33.047 1.63968 32.968 1.78034 32.8273C1.92099 32.6867 2.00001 32.4959 2.00001 32.297V7.50501L24.7 7.54401V20.049C24.7 20.2479 24.779 20.4387 24.9197 20.5793C25.0603 20.72 25.2511 20.799 25.45 20.799C25.6489 20.799 25.8397 20.72 25.9803 20.5793C26.121 20.4387 26.2 20.2479 26.2 20.049V7.54401C26.2037 7.13839 26.0462 6.7479 25.7622 6.45836C25.4781 6.16883 25.0906 6.00397 24.685 6.00001H2.636L6.06601 3.10001H27.866C28.1843 3.10001 28.4895 3.22643 28.7145 3.45148C28.9396 3.67652 29.066 3.98175 29.066 4.30001V19.52C29.066 19.7189 29.145 19.9097 29.2857 20.0503C29.4263 20.191 29.6171 20.27 29.816 20.27C30.0149 20.27 30.2057 20.191 30.3463 20.0503C30.487 19.9097 30.566 19.7189 30.566 19.52V4.30001C30.566 3.58392 30.2815 2.89717 29.7752 2.39082C29.2688 1.88447 28.5821 1.60001 27.866 1.60001H5.79201C5.61481 1.5999 5.44332 1.66261 5.30801 1.77701L0.853005 5.55101C0.747686 5.65902 0.665361 5.78727 0.611005 5.92801C0.54138 6.03984 0.503047 6.16831 0.500005 6.30001V32.3C0.500799 32.4984 0.580167 32.6884 0.720733 32.8284C0.861299 32.9684 1.05161 33.047 1.25001 33.047Z" fill="#76FF03"/>
<path d="M27.642 19.781C27.8409 19.781 28.0317 19.702 28.1723 19.5613C28.313 19.4207 28.392 19.2299 28.392 19.031V6.03999C28.3912 5.44923 28.1565 4.88283 27.7391 4.46472C27.3217 4.04661 26.7558 3.81084 26.165 3.80899L7.41901 3.76999C7.22009 3.76999 7.02933 3.84901 6.88868 3.98966C6.74802 4.13031 6.66901 4.32108 6.66901 4.51999C6.66901 4.7189 6.74802 4.90967 6.88868 5.05032C7.02933 5.19097 7.22009 5.26999 7.41901 5.26999L26.166 5.30899C26.3596 5.30952 26.5451 5.38674 26.682 5.52374C26.8188 5.66074 26.8957 5.84637 26.896 6.03999V19.031C26.896 19.2292 26.9745 19.4194 27.1143 19.5599C27.254 19.7004 27.4438 19.7799 27.642 19.781ZM37.972 34.059C37.7731 34.059 37.5823 34.138 37.4417 34.2787C37.301 34.4193 37.222 34.6101 37.222 34.809V41.045C37.2234 41.1914 37.1891 41.3359 37.122 41.466C36.7 42.271 34.7 44.9 26.7 44.9C18.7 44.9 16.7 42.274 16.273 41.468C16.2061 41.3382 16.1718 41.194 16.173 41.048V35.127C16.173 34.9281 16.094 34.7373 15.9533 34.5967C15.8127 34.456 15.6219 34.377 15.423 34.377C15.2241 34.377 15.0333 34.456 14.8927 34.5967C14.752 34.7373 14.673 34.9281 14.673 35.127V41.045C14.6709 41.4341 14.7629 41.818 14.941 42.164C15.615 43.437 18.1 46.4 26.7 46.4C35.3 46.4 37.784 43.44 38.453 42.168C38.6326 41.8221 38.7253 41.4377 38.723 41.048V34.809C38.723 34.7104 38.7036 34.6128 38.6658 34.5217C38.6281 34.4307 38.5727 34.348 38.503 34.2783C38.4332 34.2086 38.3504 34.1534 38.2593 34.1158C38.1682 34.0782 38.0706 34.0589 37.972 34.059Z" fill="#76FF03"/>
<path d="M47.987 27.639L28.145 21.011C27.9935 20.96 27.8295 20.96 27.678 21.011L5.32701 28.177C5.17777 28.2261 5.04769 28.3208 4.95509 28.4477C4.86249 28.5747 4.81203 28.7274 4.81081 28.8845C4.8096 29.0417 4.85769 29.1952 4.94832 29.3235C5.03895 29.4519 5.16755 29.5486 5.31601 29.6L26.216 36.664C26.2933 36.6901 26.3744 36.7036 26.456 36.704C26.5419 36.7038 26.6271 36.689 26.708 36.66L42.049 31.182V34.782C41.5319 34.9381 41.0786 35.2562 40.7558 35.6893C40.433 36.1225 40.2578 36.6478 40.256 37.188V38.7C40.256 39.3705 40.5224 40.0135 40.9964 40.4876C41.4705 40.9616 42.1135 41.228 42.784 41.228C43.4545 41.228 44.0975 40.9616 44.5716 40.4876C45.0457 40.0135 45.312 39.3705 45.312 38.7V37.186C45.3106 36.6507 45.1391 36.1297 44.8222 35.6983C44.5053 35.2669 44.0594 34.9474 43.549 34.786V30.646L48 29.057C48.147 29.0045 48.274 28.9075 48.3633 28.7795C48.4526 28.6514 48.4997 28.4987 48.498 28.3426C48.4964 28.1866 48.4461 28.0349 48.3541 27.9087C48.2621 27.7826 48.1331 27.6883 47.985 27.639H47.987ZM43.808 38.7C43.808 38.9726 43.6997 39.2341 43.5069 39.4269C43.3141 39.6197 43.0527 39.728 42.78 39.728C42.5074 39.728 42.2459 39.6197 42.0531 39.4269C41.8603 39.2341 41.752 38.9726 41.752 38.7V37.186C41.752 37.051 41.7786 36.9173 41.8303 36.7926C41.8819 36.6679 41.9576 36.5545 42.0531 36.4591C42.1486 36.3636 42.2619 36.2879 42.3866 36.2362C42.5113 36.1846 42.645 36.158 42.78 36.158C42.915 36.158 43.0487 36.1846 43.1734 36.2362C43.2981 36.2879 43.4115 36.3636 43.5069 36.4591C43.6024 36.5545 43.6781 36.6679 43.7298 36.7926C43.7814 36.9173 43.808 37.051 43.808 37.186V38.7ZM42.692 29.36L26.779 27.643C26.6798 27.6299 26.5791 27.6368 26.4826 27.6633C26.3862 27.6897 26.296 27.7352 26.2173 27.797C26.1387 27.8588 26.0733 27.9358 26.0248 28.0233C25.9764 28.1108 25.9459 28.2071 25.9352 28.3065C25.9246 28.406 25.9339 28.5066 25.9627 28.6023C25.9914 28.6981 26.0391 28.7872 26.1028 28.8643C26.1665 28.9414 26.245 29.005 26.3337 29.0513C26.4223 29.0976 26.5193 29.1257 26.619 29.134L39.448 30.518L26.448 35.162L7.95401 28.91L27.902 22.51L45.453 28.373L42.692 29.36Z" fill="#76FF03"/>
</g>
<defs>
<clipPath id="clip0_124_32">
<rect width="48" height="48" fill="white" transform="translate(0.5)"/>
</clipPath>
</defs>
</svg>
