<svg width="240" height="35" viewBox="0 0 240 35" fill="none" xmlns="http://www.w3.org/2000/svg">
<path d="M222.412 6.8346V6.10676H223.139V6.8346H222.412Z" fill="#76FF03"/>
<path d="M225.807 6.8346C225.612 6.8346 225.432 6.78726 225.266 6.69258C225.106 6.59198 224.976 6.4618 224.876 6.30203C224.781 6.13634 224.734 5.95586 224.734 5.76059V0H225.461V5.76059C225.461 5.85527 225.494 5.93811 225.559 6.00912C225.63 6.07421 225.712 6.10676 225.807 6.10676H226.676V6.8346H225.807Z" fill="#76FF03"/>
<path d="M228.839 6.8346C228.644 6.8346 228.464 6.78726 228.299 6.69258C228.139 6.59198 228.009 6.4618 227.908 6.30203C227.814 6.13634 227.767 5.95586 227.767 5.76059V3.89661H232.271V2.76047C232.271 2.66579 232.236 2.5859 232.165 2.52081C232.1 2.4498 232.02 2.4143 231.925 2.4143H227.767V1.68646H231.925C232.126 1.68646 232.307 1.73676 232.466 1.83735C232.632 1.93203 232.762 2.06221 232.856 2.2279C232.957 2.38767 233.007 2.56519 233.007 2.76047V6.8346H228.839ZM228.839 6.10676H232.271V4.62445H228.494V5.76059C228.494 5.85527 228.526 5.93811 228.591 6.00912C228.662 6.07421 228.745 6.10676 228.839 6.10676Z" fill="#76FF03"/>
<path d="M234.159 6.8346V0H234.887V1.68646H238.327C238.522 1.68646 238.699 1.73676 238.859 1.83735C239.025 1.93203 239.155 2.06221 239.249 2.2279C239.35 2.38767 239.4 2.56519 239.4 2.76047V5.76059C239.4 5.95586 239.35 6.13634 239.249 6.30203C239.155 6.4618 239.025 6.59198 238.859 6.69258C238.699 6.78726 238.522 6.8346 238.327 6.8346H234.159ZM235.241 6.10676H238.327C238.422 6.10676 238.501 6.07421 238.566 6.00912C238.637 5.93811 238.673 5.85527 238.673 5.76059V2.76047C238.673 2.66579 238.637 2.5859 238.566 2.52081C238.501 2.4498 238.422 2.4143 238.327 2.4143H235.241C235.147 2.4143 235.064 2.4498 234.993 2.52081C234.922 2.5859 234.887 2.66579 234.887 2.76047V5.76059C234.887 5.85527 234.922 5.93811 234.993 6.00912C235.064 6.07421 235.147 6.10676 235.241 6.10676Z" fill="#76FF03"/>
<path d="M6.15172 35C5.0433 35 4.01802 34.7226 3.07586 34.1679C2.13371 33.6131 1.38552 32.8642 0.831314 31.9211C0.277105 30.978 0 29.9517 0 28.8422V5.04316H6.44268V28.5094H23.4015V5.04316H29.9273V28.8422C29.9273 29.9517 29.6363 30.978 29.0544 31.9211C28.5002 32.8642 27.752 33.6131 26.8099 34.1679C25.8954 34.7226 24.884 35 23.7756 35H6.15172Z" fill="#76FF03"/>
<path d="M40.6564 35V10.8681H59.07C60.1785 10.8681 61.1899 11.1455 62.1043 11.7002C63.0188 12.255 63.7393 12.99 64.2657 13.9054C64.82 14.8207 65.0971 15.8193 65.0971 16.9011V35H58.7375V17.2339H47.016V35H40.6564Z" fill="#76FF03"/>
<path d="M75.7499 35V10.8681H82.1094V35H75.7499ZM75.7499 9.37026V2.96283H82.1094V9.37026H75.7499Z" fill="#76FF03"/>
<path d="M101.875 35V11.5338H90.153V5.04316H120.08V11.5338H108.359V35H101.875Z" fill="#76FF03"/>
<path d="M135.243 35C134.162 35 133.165 34.7226 132.25 34.1679C131.336 33.6131 130.602 32.8781 130.047 31.9627C129.493 31.0474 129.216 30.0488 129.216 28.967V16.9011C129.216 15.8193 129.493 14.8207 130.047 13.9054C130.602 12.99 131.336 12.255 132.25 11.7002C133.165 11.1455 134.162 10.8681 135.243 10.8681H147.63C148.738 10.8681 149.749 11.1455 150.664 11.7002C151.578 12.255 152.299 12.99 152.825 13.9054C153.38 14.8207 153.657 15.8193 153.657 16.9011V26.1378H135.576V28.6342H153.657V35H135.243ZM135.576 20.5625H147.297V17.2339H135.576V20.5625Z" fill="#76FF03"/>
<path d="M169.242 35C168.162 35 167.164 34.7226 166.25 34.1679C165.335 33.6131 164.601 32.8781 164.047 31.9627C163.493 31.0474 163.215 30.0488 163.215 28.967V16.9011C163.215 15.8193 163.493 14.8207 164.047 13.9054C164.601 12.99 165.335 12.255 166.25 11.7002C167.164 11.1455 168.162 10.8681 169.242 10.8681H187.615V17.2339H169.575V28.6342H187.656V35H169.242Z" fill="#76FF03"/>
<path d="M197.299 35V2.96283H203.659V10.8681H215.713C216.793 10.8681 217.791 11.1455 218.705 11.7002C219.62 12.255 220.354 12.99 220.908 13.9054C221.463 14.8207 221.74 15.8193 221.74 16.9011V35H215.38V17.2339H203.659V35H197.299Z" fill="#76FF03"/>
</svg>
