<svg width="69" height="68" viewBox="0 0 69 68" fill="none" xmlns="http://www.w3.org/2000/svg">
<path d="M66.1122 49.7375L65.7622 50.0875L63.0372 47.3625C61.7825 46.108 60.9445 44.4975 60.6372 42.75C60.1098 39.5091 58.6901 36.4792 56.5372 34C58.6742 31.5105 60.0918 28.4853 60.6372 25.25C60.9466 23.4959 61.7839 21.878 63.0372 20.6125L65.7497 17.9125L66.0997 18.2625C66.2159 18.3797 66.3542 18.4727 66.5065 18.5361C66.6588 18.5996 66.8222 18.6323 66.9872 18.6323C67.1522 18.6323 67.3156 18.5996 67.4679 18.5361C67.6203 18.4727 67.7585 18.3797 67.8747 18.2625C68.1075 18.0283 68.2382 17.7115 68.2382 17.3813C68.2382 17.051 68.1075 16.7342 67.8747 16.5L66.6247 15.25L53.2497 1.85L51.9997 0.600002C51.7655 0.367189 51.4487 0.236511 51.1185 0.236511C50.7882 0.236511 50.4714 0.367189 50.2372 0.600002C50.1201 0.716206 50.0271 0.854457 49.9636 1.00678C49.9001 1.15911 49.8675 1.32249 49.8675 1.4875C49.8675 1.65252 49.9001 1.8159 49.9636 1.96822C50.0271 2.12055 50.1201 2.2588 50.2372 2.375L50.5872 2.725L47.8622 5.4625C46.6034 6.71139 44.9949 7.54835 43.2497 7.8625C40.0108 8.39621 36.9825 9.81516 34.4997 11.9625C32.0155 9.81736 28.9879 8.39871 25.7497 7.8625C23.9957 7.55315 22.3778 6.71586 21.1122 5.4625L18.4122 2.75L18.7622 2.4C18.8794 2.2838 18.9724 2.14555 19.0358 1.99322C19.0993 1.8409 19.132 1.67752 19.132 1.5125C19.132 1.34749 19.0993 1.18411 19.0358 1.03178C18.9724 0.879457 18.8794 0.741206 18.7622 0.625002C18.528 0.392189 18.2112 0.261511 17.881 0.261511C17.5507 0.261511 17.2339 0.392189 16.9997 0.625002L15.7497 1.875L1.11223 16.5C0.878504 16.7354 0.747859 17.054 0.749031 17.3857C0.750203 17.7174 0.883097 18.035 1.11848 18.2688C1.35386 18.5025 1.67244 18.6331 2.00415 18.632C2.33585 18.6308 2.6535 18.4979 2.88723 18.2625L3.24973 17.9125L5.97473 20.6375C7.21904 21.8979 8.05156 23.5063 8.36223 25.25C8.90277 28.4868 10.3209 31.5133 12.4622 34C10.322 36.4874 8.904 39.5136 8.36223 42.75C8.05288 44.5041 7.21558 46.122 5.96223 47.3875L3.24973 50.0875L2.89973 49.7375C2.78352 49.6203 2.64527 49.5274 2.49295 49.4639C2.34062 49.4004 2.17724 49.3678 2.01223 49.3678C1.84721 49.3678 1.68383 49.4004 1.53151 49.4639C1.37918 49.5274 1.24093 49.6203 1.12473 49.7375C0.891913 49.9717 0.761235 50.2885 0.761235 50.6188C0.761235 50.949 0.891913 51.2658 1.12473 51.5L2.37473 52.75L15.7497 66.15L16.9997 67.4C17.2339 67.6328 17.5507 67.7635 17.881 67.7635C18.2112 67.7635 18.528 67.6328 18.7622 67.4C18.8794 67.2838 18.9724 67.1456 19.0358 66.9932C19.0993 66.8409 19.132 66.6775 19.132 66.5125C19.132 66.3475 19.0993 66.1841 19.0358 66.0318C18.9724 65.8795 18.8794 65.7412 18.7622 65.625L18.4122 65.25L21.1372 62.525C22.3929 61.2742 24.0034 60.4405 25.7497 60.1375C28.9842 59.5896 32.0088 58.1724 34.4997 56.0375C36.9892 58.1745 40.0145 59.5921 43.2497 60.1375C45.0064 60.4391 46.6265 61.2775 47.8872 62.5375L50.5872 65.25L50.2372 65.6C50.1199 65.7157 50.0264 65.8534 49.9623 66.0053C49.8981 66.1571 49.8645 66.3201 49.8634 66.4849C49.8622 66.6497 49.8935 66.8132 49.9555 66.9659C50.0175 67.1186 50.109 67.2576 50.2247 67.375C50.3405 67.4924 50.4782 67.5858 50.63 67.6499C50.7818 67.7141 50.9448 67.7477 51.1096 67.7489C51.2745 67.75 51.4379 67.7187 51.5906 67.6567C51.7433 67.5947 51.8824 67.5032 51.9997 67.3875L67.8872 51.5C68.12 51.2658 68.2507 50.949 68.2507 50.6188C68.2507 50.2885 68.12 49.9717 67.8872 49.7375C67.771 49.6203 67.6328 49.5274 67.4804 49.4639C67.3281 49.4004 67.1647 49.3678 66.9997 49.3678C66.8347 49.3678 66.6713 49.4004 66.519 49.4639C66.3667 49.5274 66.2284 49.6203 66.1122 49.7375ZM43.6122 10.325C45.8784 9.93981 47.9674 8.85594 49.5872 7.225L52.3497 4.5L63.9997 16.15L61.2747 18.875C59.6438 20.4948 58.5599 22.5839 58.1747 24.85C57.5735 28.1796 55.9479 31.2386 53.5247 33.6C53.3265 33.1314 53.0376 32.7066 52.6747 32.35C52.285 31.9505 51.8109 31.643 51.2872 31.45C51.7681 30.6849 51.9767 29.7799 51.8791 28.8816C51.7816 27.9832 51.3836 27.144 50.7497 26.5C50.355 26.1035 49.8826 25.7929 49.3622 25.5875C49.8216 24.8226 50.0122 23.9261 49.9034 23.0405C49.7947 22.1549 49.393 21.331 48.7622 20.7C48.1225 20.0795 47.2976 19.6851 46.413 19.5767C45.5285 19.4684 44.6327 19.6522 43.8622 20.1C43.6692 19.5763 43.3617 19.1023 42.9622 18.7125C42.5907 18.3402 42.1494 18.0449 41.6636 17.8434C41.1777 17.6418 40.6569 17.5381 40.131 17.5381C39.605 17.5381 39.0842 17.6418 38.5984 17.8434C38.1126 18.0449 37.6713 18.3402 37.2997 18.7125L32.2997 23.7125C32.0732 23.0104 31.6834 22.3721 31.1622 21.85C30.6268 21.329 29.9692 20.9508 29.2497 20.75C33.8997 16.6 36.5122 11.5 43.6497 10.325H43.6122ZM7.72473 18.875L4.99973 16.15L16.6497 4.5L19.3747 7.225C20.9945 8.85594 23.0836 9.93981 25.3497 10.325C28.0524 10.7766 30.5855 11.9417 32.6872 13.7L14.1997 32.175C12.4471 30.0746 11.2825 27.5471 10.8247 24.85C10.4395 22.5839 9.35567 20.4948 7.72473 18.875ZM25.3497 57.625C23.0836 58.0102 20.9945 59.0941 19.3747 60.725L16.6497 63.5L4.99973 51.85L7.72473 49.125C9.35567 47.5052 10.4395 45.4161 10.8247 43.15C11.3632 39.9649 12.8842 37.0278 15.1747 34.75L26.3122 23.6C26.7166 23.2148 27.2537 23 27.8122 23C28.3707 23 28.9078 23.2148 29.3122 23.6C29.5103 23.7964 29.6675 24.0301 29.7747 24.2875C29.882 24.545 29.9372 24.8211 29.9372 25.1C29.9372 25.3789 29.882 25.6551 29.7747 25.9125C29.6675 26.17 29.5103 26.4036 29.3122 26.6L27.0997 28.8125L26.5622 29.3625C26.3574 29.6016 26.2504 29.9092 26.2626 30.2238C26.2747 30.5384 26.4052 30.8368 26.6278 31.0595C26.8504 31.2821 27.1488 31.4125 27.4634 31.4246C27.778 31.4368 28.0856 31.3298 28.3247 31.125L31.6247 27.825C33.2372 26.225 39.3997 20.05 38.9997 20.45C39.2833 20.1668 39.6677 20.0078 40.0685 20.0078C40.4692 20.0078 40.8536 20.1668 41.1372 20.45C41.2771 20.5894 41.388 20.7549 41.4637 20.9373C41.5394 21.1196 41.5784 21.3151 41.5784 21.5125C41.5784 21.7099 41.5394 21.9054 41.4637 22.0877C41.388 22.2701 41.2771 22.4356 41.1372 22.575L30.4622 33.25C30.3451 33.3662 30.2521 33.5045 30.1886 33.6568C30.1252 33.8091 30.0925 33.9725 30.0925 34.1375C30.0925 34.3025 30.1252 34.4659 30.1886 34.6182C30.2521 34.7705 30.3451 34.9088 30.4622 35.025C30.6964 35.2578 31.0132 35.3885 31.3435 35.3885C31.6737 35.3885 31.9905 35.2578 32.2247 35.025L42.8997 24.35L44.8122 22.4375C45.0983 22.164 45.4789 22.0113 45.8747 22.0113C46.2705 22.0113 46.6511 22.164 46.9372 22.4375C47.0771 22.5769 47.188 22.7425 47.2637 22.9248C47.3394 23.1071 47.3784 23.3026 47.3784 23.5C47.3784 23.6974 47.3394 23.8929 47.2637 24.0752C47.188 24.2576 47.0771 24.4231 46.9372 24.5625L45.9747 25.525L34.3497 37.15C34.1449 37.3891 34.0379 37.6967 34.0501 38.0113C34.0622 38.3259 34.1926 38.6243 34.4153 38.847C34.6379 39.0696 34.9363 39.2 35.2509 39.2121C35.5655 39.2243 35.8731 39.1173 36.1122 38.9125L46.7997 28.2375C47.0858 27.964 47.4664 27.8113 47.8622 27.8113C48.258 27.8113 48.6386 27.964 48.9247 28.2375C49.0646 28.3769 49.1755 28.5424 49.2512 28.7248C49.3269 28.9071 49.3659 29.1026 49.3659 29.3C49.3659 29.4974 49.3269 29.6929 49.2512 29.8752C49.1755 30.0576 49.0646 30.2231 48.9247 30.3625L46.9997 32.275L38.2497 41.025C38.1326 41.1412 38.0396 41.2795 37.9761 41.4318C37.9126 41.5841 37.88 41.7475 37.88 41.9125C37.88 42.0775 37.9126 42.2409 37.9761 42.3932C38.0396 42.5456 38.1326 42.6838 38.2497 42.8C38.4839 43.0328 38.8007 43.1635 39.131 43.1635C39.4612 43.1635 39.778 43.0328 40.0122 42.8L48.7622 34.05C48.9017 33.9105 49.0674 33.7998 49.2497 33.7243C49.432 33.6488 49.6274 33.6099 49.8247 33.6099C50.022 33.6099 50.2174 33.6488 50.3997 33.7243C50.582 33.7998 50.7477 33.9105 50.8872 34.05C51.0267 34.1895 51.1374 34.3552 51.2129 34.5375C51.2885 34.7198 51.3273 34.9152 51.3273 35.1125C51.3273 35.3098 51.2885 35.5052 51.2129 35.6875C51.1374 35.8698 51.0267 36.0355 50.8872 36.175C33.2497 53.7625 31.8622 56.5 25.3497 57.675V57.625ZM49.6247 60.775C48.0049 59.1441 45.9159 58.0602 43.6497 57.675C40.9497 57.2148 38.4188 56.0506 36.3122 54.3L54.7997 35.8125C56.5653 37.9096 57.7314 40.4448 58.1747 43.15C58.5623 45.4153 59.6458 47.5037 61.2747 49.125L63.9997 51.85L52.3497 63.5L49.6247 60.775Z" fill="#76FF03"/>
</svg>
