<svg width="48" height="48" viewBox="0 0 48 48" fill="none" xmlns="http://www.w3.org/2000/svg">
<path d="M45.677 34.7914L45.437 35.0314L43.5685 33.1629C42.7081 32.3026 42.1334 31.1983 41.9228 30C41.5611 27.7777 40.5876 25.7 39.1113 24C40.5767 22.2929 41.5487 20.2185 41.9228 18C42.1349 16.7972 42.709 15.6878 43.5685 14.82L45.4285 12.9686L45.6685 13.2086C45.7481 13.2889 45.843 13.3527 45.9474 13.3962C46.0519 13.4397 46.1639 13.4621 46.277 13.4621C46.3902 13.4621 46.5022 13.4397 46.6067 13.3962C46.7111 13.3527 46.8059 13.2889 46.8856 13.2086C47.0453 13.048 47.1349 12.8307 47.1349 12.6043C47.1349 12.3779 47.0453 12.1606 46.8856 12L46.0285 11.1429L36.857 1.95429L35.9999 1.09715C35.8393 0.937508 35.6221 0.8479 35.3956 0.8479C35.1692 0.8479 34.9519 0.937508 34.7913 1.09715C34.711 1.17683 34.6472 1.27163 34.6037 1.37609C34.5602 1.48054 34.5378 1.59257 34.5378 1.70572C34.5378 1.81888 34.5602 1.93091 34.6037 2.03536C34.6472 2.13981 34.711 2.23461 34.7913 2.31429L35.0313 2.55429L33.1628 4.43144C32.2996 5.28782 31.1966 5.86173 29.9999 6.07715C27.7789 6.44312 25.7024 7.41612 23.9999 8.88858C22.2964 7.41762 20.2203 6.44483 17.9999 6.07715C16.7971 5.86503 15.6877 5.29088 14.8199 4.43144L12.9685 2.57144L13.2085 2.33144C13.2888 2.25175 13.3526 2.15695 13.3961 2.0525C13.4396 1.94805 13.462 1.83602 13.462 1.72287C13.462 1.60971 13.4396 1.49768 13.3961 1.39323C13.3526 1.28878 13.2888 1.19398 13.2085 1.11429C13.0479 0.954651 12.8306 0.865043 12.6042 0.865043C12.3777 0.865043 12.1605 0.954651 11.9999 1.11429L11.1428 1.97144L1.10562 12C0.94535 12.1614 0.855765 12.3799 0.856569 12.6073C0.857373 12.8348 0.9485 13.0526 1.1099 13.2129C1.27131 13.3731 1.48976 13.4627 1.71722 13.4619C1.94467 13.4611 2.16249 13.37 2.32276 13.2086L2.57133 12.9686L4.4399 14.8372C5.29315 15.7014 5.86402 16.8043 6.07705 18C6.4477 20.2195 7.42013 22.2948 8.88847 24C7.42087 25.7057 6.44855 27.7808 6.07705 30C5.86492 31.2028 5.29078 32.3122 4.43133 33.18L2.57133 35.0314L2.33133 34.7914C2.25165 34.7111 2.15685 34.6473 2.0524 34.6038C1.94795 34.5603 1.83591 34.5379 1.72276 34.5379C1.60961 34.5379 1.49757 34.5603 1.39312 34.6038C1.28867 34.6473 1.19387 34.7111 1.11419 34.7914C0.954545 34.952 0.864937 35.1693 0.864937 35.3957C0.864937 35.6222 0.954545 35.8394 1.11419 36L1.97133 36.8572L11.1428 46.0457L11.9999 46.9029C12.1605 47.0625 12.3777 47.1521 12.6042 47.1521C12.8306 47.1521 13.0479 47.0625 13.2085 46.9029C13.2888 46.8232 13.3526 46.7284 13.3961 46.6239C13.4396 46.5195 13.462 46.4074 13.462 46.2943C13.462 46.1811 13.4396 46.0691 13.3961 45.9647C13.3526 45.8602 13.2888 45.7654 13.2085 45.6857L12.9685 45.4286L14.837 43.56C15.6981 42.7023 16.8024 42.1306 17.9999 41.9229C20.2179 41.5472 22.2919 40.5754 23.9999 39.1114C25.707 40.5768 27.7814 41.5489 29.9999 41.9229C31.2045 42.1297 32.3154 42.7046 33.1799 43.5686L35.0313 45.4286L34.7913 45.6686C34.7108 45.7479 34.6468 45.8424 34.6028 45.9465C34.5588 46.0506 34.5358 46.1624 34.535 46.2754C34.5342 46.3884 34.5556 46.5005 34.5982 46.6052C34.6407 46.7099 34.7034 46.8052 34.7828 46.8857C34.8621 46.9662 34.9565 47.0303 35.0607 47.0743C35.1648 47.1182 35.2765 47.1413 35.3896 47.1421C35.5026 47.1429 35.6146 47.1214 35.7194 47.0789C35.8241 47.0364 35.9194 46.9737 35.9999 46.8943L46.8942 36C47.0538 35.8394 47.1434 35.6222 47.1434 35.3957C47.1434 35.1693 47.0538 34.952 46.8942 34.7914C46.8145 34.7111 46.7197 34.6473 46.6152 34.6038C46.5108 34.5603 46.3988 34.5379 46.2856 34.5379C46.1725 34.5379 46.0604 34.5603 45.956 34.6038C45.8515 34.6473 45.7567 34.7111 45.677 34.7914ZM30.2485 7.76572C31.8024 7.50159 33.2349 6.75837 34.3456 5.64001L36.2399 3.77144L44.2285 11.76L42.3599 13.6286C41.2415 14.7393 40.4983 16.1718 40.2342 17.7257C39.8219 20.0089 38.7072 22.1065 37.0456 23.7257C36.9097 23.4044 36.7116 23.1131 36.4628 22.8686C36.1955 22.5946 35.8704 22.3838 35.5113 22.2514C35.8411 21.7268 35.9841 21.1062 35.9172 20.4902C35.8503 19.8742 35.5774 19.2988 35.1428 18.8572C34.8721 18.5853 34.5482 18.3723 34.1913 18.2314C34.5064 17.7069 34.637 17.0922 34.5624 16.4849C34.4879 15.8776 34.2124 15.3127 33.7799 14.88C33.3413 14.4545 32.7756 14.184 32.169 14.1098C31.5625 14.0355 30.9482 14.1615 30.4199 14.4686C30.2876 14.1095 30.0767 13.7844 29.8028 13.5172C29.548 13.2619 29.2454 13.0593 28.9122 12.9212C28.5791 12.783 28.222 12.7119 27.8613 12.7119C27.5007 12.7119 27.1436 12.783 26.8104 12.9212C26.4773 13.0593 26.1747 13.2619 25.9199 13.5172L22.4913 16.9457C22.336 16.4643 22.0687 16.0266 21.7113 15.6686C21.3442 15.3114 20.8933 15.052 20.3999 14.9143C23.5885 12.0686 25.3799 8.57144 30.2742 7.76572H30.2485ZM5.6399 13.6286L3.77133 11.76L11.7599 3.77144L13.6285 5.64001C14.7392 6.75837 16.1717 7.50159 17.7256 7.76572C19.5789 8.0754 21.3159 8.87435 22.757 10.08L10.0799 22.7486C8.87807 21.3083 8.07952 19.5751 7.76562 17.7257C7.50148 16.1718 6.75826 14.7393 5.6399 13.6286ZM17.7256 40.2C16.1717 40.4641 14.7392 41.2074 13.6285 42.3257L11.7599 44.2286L3.77133 36.24L5.6399 34.3714C6.75826 33.2607 7.50148 31.8282 7.76562 30.2743C8.13487 28.0902 9.17782 26.0762 10.7485 24.5143L18.3856 16.8686C18.6629 16.6045 19.0312 16.4572 19.4142 16.4572C19.7972 16.4572 20.1654 16.6045 20.4428 16.8686C20.5786 17.0032 20.6863 17.1635 20.7599 17.34C20.8335 17.5165 20.8713 17.7059 20.8713 17.8972C20.8713 18.0884 20.8335 18.2778 20.7599 18.4543C20.6863 18.6308 20.5786 18.7911 20.4428 18.9257L18.9256 20.4429L18.557 20.82C18.4166 20.984 18.3432 21.1949 18.3516 21.4106C18.3599 21.6263 18.4493 21.831 18.602 21.9836C18.7546 22.1363 18.9593 22.2257 19.175 22.234C19.3907 22.2424 19.6016 22.169 19.7656 22.0286L22.0285 19.7657C23.1342 18.6686 27.3599 14.4343 27.0856 14.7086C27.2801 14.5144 27.5437 14.4053 27.8185 14.4053C28.0933 14.4053 28.3569 14.5144 28.5513 14.7086C28.6472 14.8041 28.7233 14.9177 28.7752 15.0427C28.8271 15.1677 28.8539 15.3018 28.8539 15.4372C28.8539 15.5725 28.8271 15.7066 28.7752 15.8316C28.7233 15.9566 28.6472 16.0702 28.5513 16.1657L21.2313 23.4857C21.151 23.5654 21.0872 23.6602 21.0437 23.7647C21.0002 23.8691 20.9778 23.9811 20.9778 24.0943C20.9778 24.2074 21.0002 24.3195 21.0437 24.4239C21.0872 24.5284 21.151 24.6232 21.2313 24.7029C21.3919 24.8625 21.6092 24.9521 21.8356 24.9521C22.0621 24.9521 22.2793 24.8625 22.4399 24.7029L29.7599 17.3829L31.0713 16.0714C31.2675 15.8839 31.5285 15.7792 31.7999 15.7792C32.0713 15.7792 32.3323 15.8839 32.5285 16.0714C32.6244 16.167 32.7004 16.2805 32.7524 16.4056C32.8043 16.5306 32.831 16.6646 32.831 16.8C32.831 16.9354 32.8043 17.0694 32.7524 17.1945C32.7004 17.3195 32.6244 17.433 32.5285 17.5286L31.8685 18.1886L23.897 26.16C23.7566 26.324 23.6832 26.5349 23.6916 26.7506C23.6999 26.9663 23.7893 27.171 23.942 27.3236C24.0946 27.4763 24.2993 27.5657 24.515 27.574C24.7307 27.5824 24.9416 27.509 25.1056 27.3686L32.4342 20.0486C32.6304 19.861 32.8913 19.7563 33.1628 19.7563C33.4342 19.7563 33.6951 19.861 33.8913 20.0486C33.9872 20.1441 34.0633 20.2577 34.1152 20.3827C34.1671 20.5077 34.1939 20.6418 34.1939 20.7772C34.1939 20.9125 34.1671 21.0466 34.1152 21.1716C34.0633 21.2966 33.9872 21.4102 33.8913 21.5057L32.5713 22.8172L26.5713 28.8172C26.491 28.8968 26.4272 28.9916 26.3837 29.0961C26.3402 29.2005 26.3178 29.3126 26.3178 29.4257C26.3178 29.5389 26.3402 29.6509 26.3837 29.7554C26.4272 29.8598 26.491 29.9546 26.5713 30.0343C26.7319 30.1939 26.9492 30.2835 27.1756 30.2835C27.4021 30.2835 27.6193 30.1939 27.7799 30.0343L33.7799 24.0343C33.8756 23.9386 33.9892 23.8627 34.1142 23.8109C34.2392 23.7592 34.3732 23.7325 34.5085 23.7325C34.6438 23.7325 34.7778 23.7592 34.9028 23.8109C35.0278 23.8627 35.1414 23.9386 35.237 24.0343C35.3327 24.13 35.4086 24.2436 35.4604 24.3686C35.5122 24.4936 35.5388 24.6276 35.5388 24.7629C35.5388 24.8982 35.5122 25.0322 35.4604 25.1572C35.4086 25.2822 35.3327 25.3958 35.237 25.4914C23.1428 37.5514 22.1913 39.4286 17.7256 40.2343V40.2ZM34.3713 42.36C33.2606 41.2416 31.8281 40.4984 30.2742 40.2343C28.4227 39.9187 26.6872 39.1204 25.2428 37.92L37.9199 25.2429C39.1306 26.6809 39.9302 28.4193 40.2342 30.2743C40.5 31.8277 41.2429 33.2597 42.3599 34.3714L44.2285 36.24L36.2399 44.2286L34.3713 42.36Z" fill="#76FF03"/>
</svg>
