<svg width="60" height="70" viewBox="0 0 60 70" fill="none" xmlns="http://www.w3.org/2000/svg">
<path d="M1.67725 48.7683V66.8685C1.67725 67.6423 2.3041 68.2685 3.07725 68.2685H13.3161C14.0317 68.2685 14.5994 67.7243 14.6833 67.0308C18.1076 68.0302 25.3287 69.9993 29.0976 69.9993C29.3601 69.9993 29.6062 69.9898 29.8324 69.9693C36.6793 69.3622 54.3837 60.2417 55.0447 59.8972C56.9545 59.0749 58.3226 57.8171 58.3226 55.4757C58.3226 52.0387 54.5244 49.9616 52.3842 51.0638L43.9063 55.4661C42.6275 55.8891 39.0049 56.2499 38.591 56.2557C38.3792 55.9646 38.1102 55.6992 37.7744 55.4757C26.641 49.2725 26.4588 49.0759 25.9517 49.0759H14.7161V48.7682C14.7161 47.9944 14.0893 47.3682 13.3161 47.3682H3.07725C2.30411 47.3683 1.67725 47.9944 1.67725 48.7683ZM14.7161 51.8759H25.5859L36.3341 57.8984C36.3095 58.2921 35.8747 59.3749 35.5268 59.9122L26.8308 57.3829C26.085 57.1642 25.3111 57.5921 25.0958 58.3359C24.8798 59.0782 25.3064 59.8548 26.0487 60.0708L34.8103 62.6138C35.1357 62.7437 35.4851 62.8093 35.8494 62.8093C37.4813 62.8093 38.5091 60.534 38.9238 59.0403C39.3361 59.0209 43.3069 58.6293 44.905 58.0843C45.0599 58.0337 46.2062 57.4223 53.4786 53.6505C54.5641 53.5265 55.5226 54.3781 55.5226 55.4757C55.5226 56.7101 54.6293 57.0276 53.8477 57.3665C53.6693 57.4595 35.887 66.6224 29.5849 67.1802C26.6493 67.4492 18.6129 65.2827 14.7161 64.122V51.8759H14.7161ZM4.47725 50.1683H11.9161V65.4685H4.47725V50.1683ZM18.5306 21.2604C18.5306 24.4214 19.5464 27.4128 21.4687 29.912C23.3109 32.3073 24.7684 37.1048 25.3959 40.7962C25.5101 41.4689 26.0932 41.961 26.7761 41.961H38.6925C39.3788 41.961 39.9633 41.4634 40.074 40.7866C40.6414 37.3167 41.9621 32.4427 43.8181 30.1253C46.2373 27.1038 47.3003 23.303 46.8115 19.4243C46.0049 13.0204 40.7556 7.85928 34.3312 7.15243C25.7869 6.23095 18.5306 12.9056 18.5306 21.2604ZM34.0249 9.93603C39.1772 10.502 43.3867 14.6405 44.0334 19.7743C44.4272 22.8956 43.574 25.9499 41.632 28.3753C39.292 31.297 38.0403 36.4759 37.5208 39.161H34.1288V28.1593L36.8393 25.4495C37.3862 24.9026 37.3862 24.0167 36.8393 23.4698C36.2924 22.9229 35.4065 22.9229 34.8596 23.4698L32.7288 25.5999L30.5981 23.4698C30.0512 22.9229 29.1653 22.9229 28.6184 23.4698C28.0715 24.0167 28.0715 24.9026 28.6184 25.4495L31.3289 28.1593V39.161H27.9389C27.2041 35.5311 25.7418 30.8759 23.6876 28.2057C22.1455 26.2001 21.3306 23.7979 21.3306 21.2604C21.3306 14.5489 27.1671 9.1868 34.0249 9.93603ZM34.1288 5.12763V1.40067C34.1288 0.62685 33.502 0.000671387 32.7288 0.000671387C31.9557 0.000671387 31.3288 0.62685 31.3288 1.40067V5.12763C31.3288 5.90145 31.9557 6.52763 32.7288 6.52763C33.502 6.52763 34.1288 5.90145 34.1288 5.12763Z" fill="#76FF03"/>
<path d="M19.8534 6.15439C19.3065 5.60751 18.4206 5.60751 17.8737 6.15439C17.3269 6.70128 17.3269 7.58721 17.8737 8.13408L20.2062 10.4665C20.753 11.0134 21.639 11.0134 22.1858 10.4665C22.7327 9.91962 22.7327 9.03369 22.1858 8.48682L19.8534 6.15439ZM45.2517 31.5526C44.7048 31.0058 43.8188 31.0058 43.272 31.5526C42.7251 32.0995 42.7251 32.9855 43.272 33.5323L45.6044 35.8647C46.1513 36.4116 47.0372 36.4116 47.5841 35.8647C48.131 35.3179 48.131 34.4319 47.5841 33.8851L45.2517 31.5526ZM13.1207 19.6089C12.3476 19.6089 11.7207 20.2351 11.7207 21.0089C11.7207 21.7827 12.3476 22.4089 13.1207 22.4089H16.8477C17.6208 22.4089 18.2477 21.7827 18.2477 21.0089C18.2477 20.2351 17.6208 19.6089 16.8477 19.6089H13.1207ZM52.3378 22.4089C53.111 22.4089 53.7378 21.7827 53.7378 21.0089C53.7378 20.2351 53.111 19.6089 52.3378 19.6089H48.6109C47.8377 19.6089 47.2109 20.2351 47.2109 21.0089C47.2109 21.7827 47.8377 22.4089 48.6109 22.4089H52.3378ZM20.2061 31.5526L17.8737 33.8851C17.3268 34.4319 17.3268 35.3179 17.8737 35.8647C18.4206 36.4116 19.3065 36.4116 19.8534 35.8647L22.1858 33.5323C22.7327 32.9854 22.7327 32.0995 22.1858 31.5526C21.6389 31.0058 20.753 31.0058 20.2061 31.5526ZM45.6044 6.15439L43.272 8.48682C42.7251 9.0337 42.7251 9.91964 43.272 10.4665C43.8188 11.0134 44.7048 11.0134 45.2517 10.4665L47.5841 8.13408C48.131 7.5872 48.131 6.70126 47.5841 6.15439C47.0372 5.60753 46.1513 5.60751 45.6044 6.15439ZM28.7531 44.2019C27.98 44.2019 27.3531 44.828 27.3531 45.6018C27.3531 46.3757 27.98 47.0019 28.7531 47.0019H36.7047C37.4779 47.0019 38.1047 46.3757 38.1047 45.6018C38.1047 44.828 37.4779 44.2019 36.7047 44.2019H28.7531Z" fill="#76FF03"/>
</svg>
